<svg xmlns="http://www.w3.org/2000/svg" viewBox="0 0 300 300" role="img" aria-label="Foto de perfil de funcionária">
  <rect width="300" height="300" fill="#055a05"/>
  <circle cx="150" cy="115" r="55" fill="#f4a261"/>
  <path d="M55 300c0-60 45-95 95-95s95 35 95 95z" fill="#264653"/>
  <path d="M92 110c-5-40 20-68 58-68s63 28 58 68c-4-6-9-10-9-10-3-28-22-42-49-42s-46 14-49 42c0 0-5 4-9 10z" fill="#2b1d12"/>
  <path d="M92 110c0 35 8 60 8 60l-14-4c-6-22-4-44 6-56zM208 110c0 35-8 60-8 60l14-4c6-22 4-44-6-56z" fill="#2b1d12"/>
</svg>
